<?xml version="1.0" encoding="UTF-8"?>
<svg version="1.1" xmlns="http://www.w3.org/2000/svg" width="1024" height="1024">
<path d="M0 0 C337.92 0 675.84 0 1024 0 C1024 337.92 1024 675.84 1024 1024 C686.08 1024 348.16 1024 0 1024 C0 686.08 0 348.16 0 0 Z " fill="none" transform="translate(0,0)"/>
<path d="M0 0 C2.28978695 -0.00599606 4.5795719 -0.01280406 6.86935425 -0.02035522 C13.04004428 -0.0378958 19.21067873 -0.04270504 25.38139129 -0.0439868 C29.23960613 -0.04541381 33.09780707 -0.04969339 36.95601845 -0.05498123 C49.72981529 -0.07248106 62.5035676 -0.08182648 75.27737471 -0.08032028 C76.30578956 -0.08020042 76.30578956 -0.08020042 77.35498047 -0.08007812 C78.04143413 -0.07999636 78.7278878 -0.0799146 79.43514309 -0.07983036 C90.59526365 -0.07901494 101.7552501 -0.09823083 112.9153318 -0.12635486 C124.40019549 -0.15506782 135.88496639 -0.16852998 147.36987191 -0.16716731 C153.80797983 -0.16665711 160.24593509 -0.17237465 166.68401146 -0.19352341 C172.72606639 -0.21283525 178.76782165 -0.21307868 184.80988693 -0.19849014 C187.02829614 -0.19639337 189.24672381 -0.20115426 191.46510124 -0.21321106 C194.48878337 -0.22858393 197.51142128 -0.21940847 200.53507996 -0.20394897 C201.41619279 -0.2142361 202.29730562 -0.22452323 203.20511883 -0.23512208 C207.29702753 -0.18875666 209.35642632 -0.0361496 212.8954668 2.19643211 C216.50181548 6.01290402 216.03458598 9.49804601 216.05126953 14.50048828 C216.05784073 15.34945679 216.06441193 16.19842529 216.07118225 17.07312012 C216.09093668 19.89038171 216.10258324 22.70758992 216.11254883 25.52490234 C216.11662436 26.48644478 216.12069988 27.44798721 216.12489891 28.4386673 C216.14576982 33.52893358 216.16006654 38.61917282 216.16943359 43.70947266 C216.18049401 48.96651883 216.21488681 54.22314125 216.25460529 59.48003769 C216.28075787 63.52240788 216.28912428 67.56467697 216.29271507 71.60712433 C216.29758534 73.54479074 216.30921186 75.4824525 216.32775307 77.42003632 C216.3521133 80.1346943 216.35118513 82.84825435 216.34423828 85.56298828 C216.36345337 86.76021515 216.36345337 86.76021515 216.38305664 87.98162842 C216.33456085 93.19033628 215.39711798 96.21389344 211.87426758 100.29052734 C207.35017708 103.86980147 203.30484864 103.71354277 197.78736877 103.66906738 C196.41145322 103.67586258 196.41145322 103.67586258 195.00774139 103.68279505 C191.93258842 103.6944264 188.85786981 103.68476867 185.78271484 103.67529297 C183.57811706 103.67939795 181.37352143 103.68485838 179.16893005 103.6915741 C174.41900277 103.70330808 169.66919171 103.70578002 164.9192524 103.70121765 C157.40004167 103.69441021 149.88098381 103.7102744 142.36180115 103.72961426 C131.81070097 103.75463682 121.25962076 103.77136461 110.70849609 103.77929688 C110.03911701 103.77980405 109.36973792 103.78031123 108.68007462 103.78083378 C103.9323058 103.78435863 99.18453674 103.78748727 94.43676758 103.79052734 C89.02897113 103.79399308 83.6211749 103.79764363 78.21337891 103.80175781 C77.54754717 103.80226043 76.88171543 103.80276304 76.19570697 103.80328089 C65.06031234 103.81205056 53.92496417 103.83266332 42.7896027 103.86123991 C35.32454389 103.87954342 27.85965966 103.88350679 20.39458382 103.87630463 C15.7340308 103.87477587 11.07356395 103.88561083 6.41303444 103.899683 C4.26292497 103.9036645 2.11279883 103.90259707 -0.03730392 103.89591026 C-14.39222281 103.85472195 -28.36399851 104.0137413 -41.37573242 110.91552734 C-42.04266113 111.26035156 -42.70958984 111.60517578 -43.39672852 111.96044922 C-56.85429287 119.21509557 -65.18129973 130.00879945 -70.12573242 144.29052734 C-73.41364403 157.37974508 -70.75149967 170.40703757 -64.06323242 181.91552734 C-62.64723852 184.17661044 -61.34823166 186.07267426 -59.44213867 187.93896484 C-58.12573242 189.29052734 -58.12573242 189.29052734 -58.12573242 191.29052734 C-57.56112305 191.55349609 -56.99651367 191.81646484 -56.41479492 192.08740234 C-53.94108227 193.38757896 -51.78470027 194.93087381 -49.50073242 196.54052734 C-44.56652539 199.70873803 -39.65491746 201.76420613 -34.12573242 203.60302734 C-33.40305176 203.84504883 -32.68037109 204.08707031 -31.93579102 204.33642578 C-21.42050444 207.6684205 -10.84641136 208.70469651 0.12426758 209.35302734 C1.48690213 209.43832576 2.84953225 209.52369516 4.2121582 209.60913086 C13.59626409 210.18004654 22.97560202 210.49012437 32.37426758 210.72802734 C80.70045663 212.06633816 128.8110324 220.91365526 167.87426758 251.29052734 C168.77274414 251.97888672 169.6712207 252.66724609 170.59692383 253.37646484 C176.60269013 258.07340108 182.26271024 263.13267039 187.87426758 268.29052734 C187.54426758 269.28052734 187.21426758 270.27052734 186.87426758 271.29052734 C184.66397095 272.21472168 184.66397095 272.21472168 181.68530273 272.99951172 C180.00432999 273.45263733 180.00432999 273.45263733 178.28939819 273.91491699 C177.05154572 274.23480591 175.81369324 274.55469482 174.53833008 274.88427734 C173.23061723 275.23195236 171.92321977 275.58081554 170.61611938 275.93078613 C167.81875261 276.67748195 165.01952397 277.41655751 162.21862793 278.14990234 C157.94314355 279.27008255 153.67332342 280.41073474 149.40454102 281.55615234 C141.15247539 283.76815605 132.89602444 285.96346343 124.63877487 288.15602493 C117.225802 290.12444293 109.8132753 292.09452998 102.40161133 294.06787109 C101.57808985 294.2871118 100.75456837 294.5063525 99.90609169 294.73223686 C89.11799099 297.60601251 78.34040341 300.5154721 67.57546997 303.47485733 C65.52424805 304.03864129 63.47273978 304.60137119 61.42114258 305.16378784 C55.15357605 306.88260213 48.88854373 308.60988303 42.62768555 310.35302734 C23.41231548 315.66322141 5.70441319 318.8728458 -14.25073242 318.72802734 C-15.14481812 318.72498596 -16.03890381 318.72194458 -16.96008301 318.71881104 C-31.32752277 318.64677213 -45.12521604 317.73753475 -59.12573242 314.29052734 C-60.02050293 314.0762207 -60.91527344 313.86191406 -61.8371582 313.64111328 C-92.24587933 306.16810616 -119.46781649 291.95117585 -142.12573242 270.29052734 C-142.85791992 269.62150391 -143.59010742 268.95248047 -144.34448242 268.26318359 C-169.65384323 244.33514354 -183.03883576 208.89731805 -184.41479492 174.55615234 C-185.48010925 127.51124937 -170.41190453 87.2658039 -138.08276367 53.31396484 C-124.86046807 39.68317556 -109.95532874 28.97987357 -93.12573242 20.29052734 C-92.44784668 19.93861328 -91.76996094 19.58669922 -91.0715332 19.22412109 C-77.30556973 12.17365835 -62.99254425 7.49826057 -47.93823242 4.04052734 C-47.28733643 3.88938477 -46.63644043 3.73824219 -45.96582031 3.58251953 C-30.68838557 0.29113785 -15.55474673 -0.00819752 0 0 Z " fill="#006F8C" transform="translate(485.125732421875,239.70947265625)"/>
<path d="M0 0 C1.49841221 2.35681435 2.69856263 4.55044989 3.875 7.0625 C4.39271973 8.13963257 4.39271973 8.13963257 4.92089844 9.23852539 C10.96938221 22.06147885 15.36663569 35.05146664 18 49 C18.17732666 49.92022949 18.35465332 50.84045898 18.53735352 51.78857422 C20.16538799 61.11894123 20.44124702 70.3058171 20.4375 79.75 C20.43860275 80.96438751 20.43860275 80.96438751 20.43972778 82.20330811 C20.33634468 125.7645567 2.33134169 162.42947382 -27.8125 193.125 C-34.07842154 199.3491691 -40.87816794 204.7913794 -48 210 C-48.55429687 210.40927734 -49.10859375 210.81855469 -49.6796875 211.24023438 C-66.92207722 223.80775083 -86.65721454 233.63151517 -107 240 C-107.7532959 240.23654297 -108.5065918 240.47308594 -109.28271484 240.71679688 C-125.95351276 245.84627316 -143.10791862 249.15098321 -160.58378601 249.14717102 C-161.50604172 249.15084771 -162.42829743 249.1545244 -163.37850028 249.1583125 C-166.44594285 249.16926071 -169.51335145 249.17317784 -172.58081055 249.17700195 C-174.78912461 249.18327283 -176.99743763 249.18992018 -179.20574951 249.19691467 C-186.4327319 249.21786646 -193.65971431 249.22830219 -200.88671875 249.23828125 C-203.37821781 249.2423308 -205.86971676 249.24644778 -208.36121559 249.25063133 C-219.38800259 249.2685668 -230.41478506 249.28295297 -241.44158404 249.29080774 C-243.45430148 249.29224612 -245.46701891 249.29369751 -247.47973633 249.29516602 C-248.14596128 249.29564976 -248.81218622 249.2961335 -249.4985998 249.2966319 C-260.3092925 249.30494599 -271.11987507 249.33031577 -281.9305196 249.36274669 C-293.04337393 249.39581168 -304.1561823 249.41349493 -315.26908714 249.41702431 C-321.50334005 249.41937704 -327.73741809 249.42836827 -333.97162437 249.45348549 C-339.82972502 249.47671003 -345.68753486 249.48102202 -351.54566956 249.47072411 C-353.69593077 249.47022743 -355.84620606 249.4765865 -357.99642372 249.49028015 C-360.93035505 249.50792137 -363.86323361 249.50093126 -366.79716492 249.48774719 C-367.64901216 249.49871644 -368.5008594 249.50968568 -369.37852019 249.52098733 C-374.69813647 249.46321795 -377.8376993 248.62311144 -382 245 C-384.16986353 241.94170521 -384.25432877 239.32684572 -384.26742554 235.63078308 C-384.27595551 234.54156052 -384.28448547 233.45233795 -384.29327393 232.33010864 C-384.29236755 231.13989105 -384.29146118 229.94967346 -384.29052734 228.72338867 C-384.29724457 227.46608444 -384.30396179 226.20878021 -384.31088257 224.91337585 C-384.32854004 221.46695214 -384.33323789 218.02062777 -384.33451414 214.5741632 C-384.33593667 212.41923159 -384.34020822 210.26432515 -384.34550858 208.1093998 C-384.36400938 200.58650741 -384.3721793 193.06368587 -384.37060547 185.54077148 C-384.36940467 178.5367994 -384.39049455 171.53313579 -384.4220928 164.52924174 C-384.44827946 158.5095539 -384.45897174 152.48996663 -384.45769465 146.47022229 C-384.45718563 142.87781098 -384.46283491 139.28567372 -384.48405075 135.69331932 C-384.50708494 131.68359823 -384.49789776 127.67456406 -384.48583984 123.66479492 C-384.49707886 122.48065002 -384.50831787 121.29650513 -384.51989746 120.07647705 C-384.46979601 113.5207952 -384.06306543 109.25754973 -380 104 C-373.16112359 98.51950558 -361.08345357 97.07799949 -352.7421875 94.81640625 C-350.93229155 94.32006826 -349.12257224 93.82308574 -347.3130188 93.32550049 C-342.49689376 92.00295682 -337.67849292 90.6888948 -332.85961914 89.37640762 C-327.86460384 88.01426363 -322.8718289 86.64396075 -317.87890625 85.27416992 C-310.0578904 83.12926018 -302.23588305 80.98801285 -294.41308594 78.84960938 C-283.17296911 75.77644738 -271.93995555 72.67807046 -260.71105957 69.56414795 C-257.09893804 68.56267835 -253.48622367 67.56335625 -249.87353516 66.56393433 C-242.92698361 64.64207977 -235.98112534 62.71773088 -229.03567505 60.79190063 C-195.74283844 51.56141426 -162.42212593 42.43348057 -129.09927273 33.3121109 C-116.95342616 29.9874607 -104.80786269 26.66177705 -92.66282654 23.33416748 C-91.06696669 22.8969285 -89.47110589 22.45969297 -87.87524414 22.02246094 C-87.09070956 21.80751354 -86.30617498 21.59256615 -85.49786663 21.37110519 C-80.82949467 20.09223653 -76.16077411 18.81465013 -71.49175167 17.53815842 C-67.7704079 16.52072344 -64.04921575 15.50273495 -60.328125 14.484375 C-59.61474535 14.28914497 -58.9013657 14.09391495 -58.16636848 13.89276886 C-48.99284106 11.38109691 -39.82796552 8.84024516 -30.671875 6.265625 C-28.75337864 5.72844681 -26.83484227 5.19141145 -24.91625977 4.65454102 C-21.55944343 3.71515077 -18.2063632 2.76386413 -14.85522461 1.80444336 C-13.4283606 1.40429295 -12.00136873 1.00459805 -10.57421875 0.60546875 C-9.38401123 0.26668701 -8.19380371 -0.07209473 -6.9675293 -0.42114258 C-4.10439651 -0.97963602 -2.62974369 -1.21517215 0 0 Z " fill="#008A8E" transform="translate(693,535)"/>
<path d="M0 0 C2.29140947 -0.00599602 4.58281693 -0.012804 6.8742218 -0.02035522 C13.04897678 -0.03789529 19.22367622 -0.04270499 25.39845371 -0.0439868 C29.25867088 -0.04541372 33.11887414 -0.04969313 36.97908783 -0.05498123 C49.75795033 -0.07248024 62.53676832 -0.08182651 75.31564108 -0.08032028 C76.0015137 -0.08024037 76.68738633 -0.08016046 77.39404297 -0.08007812 C78.08075894 -0.07999636 78.76747492 -0.0799146 79.47500047 -0.07983036 C90.64226306 -0.07901474 101.80939169 -0.09823591 112.97661546 -0.12635486 C124.46712437 -0.15505857 135.95754057 -0.16853039 147.44809127 -0.16716731 C153.89007964 -0.16665691 160.3319155 -0.17238577 166.77387238 -0.19352341 C172.81838652 -0.21282148 178.86260104 -0.21308825 184.90712547 -0.19849014 C187.12756727 -0.19639171 189.34802747 -0.20116399 191.56843758 -0.21321106 C194.59247052 -0.22856053 197.61545627 -0.21942427 200.63946533 -0.20394897 C201.523491 -0.2142361 202.40751667 -0.22452323 203.318331 -0.23512208 C209.27748021 -0.16743292 209.27748021 -0.16743292 212.43458176 2.32143211 C212.90444126 2.97123354 213.37430077 3.62103497 213.85839844 4.29052734 C212.86839844 3.96052734 211.87839844 3.63052734 210.85839844 3.29052734 C209.51138216 3.20003684 208.16033632 3.16322395 206.81028461 3.16189289 C205.57037816 3.15705622 205.57037816 3.15705622 204.30542308 3.15212184 C203.39746382 3.15367044 202.48950455 3.15521905 201.55403137 3.15681458 C200.10695039 3.15341624 200.10695039 3.15341624 198.63063544 3.14994925 C195.38338361 3.14359635 192.13617339 3.14443945 188.88891602 3.14526367 C186.56650742 3.14227293 184.24409933 3.1388706 181.92169189 3.13508606 C175.60128337 3.12623181 169.28088838 3.12390731 162.96047425 3.12327027 C157.68720979 3.12232199 152.4139485 3.1186445 147.14068526 3.11509818 C135.40975761 3.10727143 123.67883584 3.10443004 111.94790582 3.10510353 C110.89172588 3.10516346 110.89172588 3.10516346 109.81420898 3.10522461 C108.75673792 3.10528593 108.75673792 3.10528593 107.67790379 3.10534849 C96.26036587 3.10575468 84.84286096 3.0961928 73.42533258 3.08208624 C61.70018796 3.06771408 49.97505942 3.06081657 38.24990577 3.06168002 C31.66791443 3.06193508 25.08596044 3.0590794 18.50397682 3.04850197 C12.31113501 3.03882231 6.11836623 3.03874097 -0.07447815 3.0460186 C-2.34643981 3.0470647 -4.61840601 3.04470006 -6.89035988 3.03865814 C-9.99443122 3.03093872 -13.09825036 3.03558292 -16.20231628 3.04328918 C-17.54752477 3.03557384 -17.54752477 3.03557384 -18.91990918 3.02770263 C-24.33873271 3.05738198 -28.92040944 3.84911189 -34.14160156 5.29052734 C-35.13160156 5.29052734 -36.12160156 5.29052734 -37.14160156 5.29052734 C-41.79171225 5.76229635 -41.79171225 5.76229635 -46.14160156 7.29052734 C-47.09035156 7.41427734 -48.03910156 7.53802734 -49.01660156 7.66552734 C-55.95871853 8.58627128 -62.88047816 10.14158661 -69.14160156 13.29052734 C-71.04697929 13.87065632 -72.96485109 14.41090222 -74.89160156 14.91552734 C-75.87644531 15.17591797 -76.86128906 15.43630859 -77.87597656 15.70458984 C-78.99746094 15.99462891 -78.99746094 15.99462891 -80.14160156 16.29052734 C-80.47160156 15.63052734 -80.80160156 14.97052734 -81.14160156 14.29052734 C-53.84722285 4.74062249 -28.89678463 -0.01521765 0 0 Z " fill="#1E68E1" transform="translate(485.1416015625,239.70947265625)"/>
<path d="M0 0 C2.56408342 2.56408342 2.25266794 4.27016301 2.29327393 7.76678467 C2.29191437 8.97615692 2.29191437 8.97615692 2.29052734 10.20996094 C2.29724457 11.05892944 2.30396179 11.90789795 2.31088257 12.78259277 C2.32993868 15.59991248 2.33379101 18.41699479 2.3359375 21.234375 C2.34236171 23.19012552 2.34908978 25.14587506 2.35610962 27.10162354 C2.36810254 31.20742011 2.37178853 35.31313245 2.37060547 39.41894531 C2.37040252 44.6760238 2.39767036 49.9325602 2.43214989 55.18951035 C2.45441083 59.23189769 2.4584432 63.27415462 2.45738602 67.31659698 C2.45974451 69.25425326 2.46858199 71.191913 2.48405075 73.12950897 C2.50368806 75.84420909 2.49788099 78.55774126 2.48583984 81.27246094 C2.49707886 82.07061218 2.50831787 82.86876343 2.51989746 83.69110107 C2.4613409 88.89694087 1.51966269 91.92528479 -2 96 C-6.54826428 99.61533758 -10.66599419 99.41662489 -16.21907043 99.36076355 C-17.15030894 99.36332682 -18.08154745 99.3658901 -19.04100531 99.36853105 C-22.16268531 99.37347405 -25.28388211 99.35696724 -28.40551758 99.34057617 C-30.64267973 99.33973001 -32.87984272 99.34020482 -35.11700439 99.34190369 C-41.19303361 99.3427655 -47.26888567 99.3251095 -53.34487367 99.30418181 C-59.69366705 99.28544607 -66.04246436 99.28366702 -72.39128113 99.28010559 C-83.04824251 99.27183644 -93.70513381 99.25308942 -104.36206055 99.22631836 C-115.3379687 99.19877469 -126.31385918 99.17754262 -137.28979492 99.16479492 C-137.9665293 99.16400675 -138.64326368 99.16321858 -139.34050516 99.16240653 C-142.73553605 99.15849137 -146.13056707 99.15470026 -149.52559817 99.15097082 C-177.68377738 99.11987863 -205.84188464 99.06682283 -234 99 C-234 98.67 -234 98.34 -234 98 C-227.06058354 96.73260611 -220.10554005 96.7708687 -213.0703125 96.68359375 C-211.61808489 96.66271041 -210.16586023 96.64162102 -208.71363831 96.62034607 C-204.69938147 96.56353754 -200.68506503 96.51424567 -196.670681 96.46736908 C-194.11707955 96.43740707 -191.56349954 96.40595503 -189.00991821 96.37432861 C-155.60709502 95.96807709 -122.20308612 95.89106401 -88.79818821 95.87788659 C-84.73363499 95.87624723 -80.66908578 95.87329154 -76.60453433 95.86918443 C-69.4591813 95.86198924 -62.3138559 95.86073365 -55.1685009 95.86561775 C-52.77279614 95.86664616 -50.3770901 95.8661178 -47.98138618 95.86385918 C-34.28564235 95.85318699 -20.66820179 96.1022454 -7 97 C-7 96.34 -7 95.68 -7 95 C-5.68 95 -4.36 95 -3 95 C-2.690625 94.05125 -2.38125 93.1025 -2.0625 92.125 C-1 89 -1 89 0 87 C0.0932036 84.25370457 0.12577094 81.53296833 0.11352539 78.78662109 C0.11374443 77.51334206 0.11374443 77.51334206 0.1139679 76.21434021 C0.11326966 73.40068023 0.1054814 70.58708596 0.09765625 67.7734375 C0.09579175 65.82573482 0.094368 63.87803168 0.09336853 61.93032837 C0.08954583 56.79779776 0.07971765 51.66529533 0.06866455 46.53277588 C0.05844512 41.29789613 0.05386977 36.06301184 0.04882812 30.828125 C0.03809517 20.55207093 0.0210217 10.27603781 0 0 Z " fill="#0290E9" transform="translate(699,244)"/>
<path d="M0 0 C2 2 2 2 2.16015625 5.22265625 C2.12792969 6.48980469 2.09570312 7.75695312 2.0625 9.0625 C2.00851506 11.37446365 1.97953537 13.68749671 2 16 C2.33 16.33 2.66 16.66 3 17 C3.125 19.5 3.125 19.5 3 22 C2.67 22.33 2.34 22.66 2 23 C1.95653201 24.99952758 1.960008 27.00039988 2 29 C2 30.81785943 1.98177036 32.63601183 1.9296875 34.453125 C1.82084011 40.01989129 1.80171016 44.83401888 4 50 C6.71701467 51.73699956 8.84184186 52.25113193 12.03733444 52.26171303 C12.83602943 52.26917852 13.63472442 52.27664401 14.45762229 52.28433573 C15.32921619 52.282401 16.20081008 52.28046626 17.09881592 52.2784729 C18.49439205 52.2871615 18.49439205 52.2871615 19.91816163 52.29602563 C23.0428067 52.31306172 26.16730439 52.31590526 29.29199219 52.31884766 C31.52901066 52.32814333 33.76602565 52.33831146 36.0030365 52.34928894 C42.08317684 52.37664359 48.16329395 52.39175456 54.24347973 52.40471697 C60.59498454 52.4203236 66.94644173 52.44712166 73.2979126 52.4727478 C83.96080254 52.51425506 94.62369243 52.54883703 105.28662109 52.578125 C116.26938751 52.60831042 127.25212788 52.64266064 138.23486328 52.68261719 C138.91186038 52.68507874 139.58885749 52.68754028 140.28636965 52.69007643 C143.68267154 52.70245103 147.07897312 52.71490756 150.47527456 52.72740483 C178.65014682 52.8309731 206.82505164 52.92002881 235 53 C232.36673151 55.63326849 230.46552215 55.24732663 226.88085914 55.276811 C226.01531417 55.2737138 225.14976921 55.2706166 224.25799561 55.26742554 C222.8835835 55.27422221 222.8835835 55.27422221 221.4814055 55.28115618 C218.39217568 55.29387867 215.3031204 55.29217476 212.21386719 55.29052734 C210.00658438 55.29650779 207.79930368 55.30331221 205.59202576 55.31088257 C199.58159131 55.32860126 193.57121376 55.33324048 187.56075573 55.33451414 C182.54830769 55.33640966 177.53587302 55.34376338 172.52343011 55.35085833 C161.37452391 55.36623072 150.22563879 55.37219425 139.07672426 55.37084763 C138.4073574 55.37076772 137.73799055 55.3706878 137.04833984 55.37060547 C136.37815639 55.37052371 135.70797293 55.37044195 135.01748088 55.37035771 C124.16107056 55.36954516 113.30479912 55.38867254 102.44842896 55.4168822 C91.3041514 55.44561158 80.15992468 55.45905614 69.01560521 55.45769465 C62.75778449 55.45718415 56.50012076 55.46291581 50.24233246 55.48405075 C44.35558411 55.50338818 38.46914318 55.50358822 32.58238411 55.48901749 C30.4208462 55.48692256 28.25928928 55.49167081 26.09778404 55.5037384 C23.14813897 55.51914012 20.19956054 55.50991588 17.24993896 55.49447632 C15.96500585 55.50990701 15.96500585 55.50990701 14.65411448 55.52564943 C9.30040764 55.46367002 6.25488382 54.54910595 2 51 C-0.03235989 48.08475246 -0.24591487 45.74016608 -0.22705078 42.23144531 C-0.22689972 41.29077209 -0.22674866 40.35009888 -0.22659302 39.38092041 C-0.21627045 38.37349792 -0.20594788 37.36607544 -0.1953125 36.328125 C-0.1924826 35.29057068 -0.18965271 34.25301636 -0.18673706 33.184021 C-0.17554865 29.87256299 -0.15044627 26.56137616 -0.125 23.25 C-0.11496848 21.00391016 -0.10584293 18.75781607 -0.09765625 16.51171875 C-0.0756137 11.00772009 -0.04214932 5.50387942 0 0 Z " fill="#11C6B8" transform="translate(309,729)"/>
<path d="M0 0 C2.56408342 2.56408342 2.25266794 4.27016301 2.29327393 7.76678467 C2.29236755 8.57303284 2.29146118 9.37928101 2.29052734 10.20996094 C2.29724457 11.05892944 2.30396179 11.90789795 2.31088257 12.78259277 C2.32993868 15.59991248 2.33379101 18.41699479 2.3359375 21.234375 C2.34236171 23.19012552 2.34908978 25.14587506 2.35610962 27.10162354 C2.36810254 31.20742011 2.37178853 35.31313245 2.37060547 39.41894531 C2.37040252 44.6760238 2.39767036 49.9325602 2.43214989 55.18951035 C2.45441083 59.23189769 2.4584432 63.27415462 2.45738602 67.31659698 C2.45974451 69.25425326 2.46858199 71.191913 2.48405075 73.12950897 C2.50368806 75.84420909 2.49788099 78.55774126 2.48583984 81.27246094 C2.49707886 82.07061218 2.50831787 82.86876343 2.51989746 83.69110107 C2.4613409 88.89694087 1.51966269 91.92528479 -2 96 C-5.55294696 98.73793889 -8.10968974 99.37524633 -12.55297852 99.37231445 C-13.64083145 99.37854324 -14.72868439 99.38477203 -15.84950256 99.39118958 C-17.01420578 99.38197983 -18.178909 99.37277008 -19.37890625 99.36328125 C-20.58312729 99.36377975 -21.78734833 99.36427826 -23.02806091 99.36479187 C-25.57072604 99.36245381 -28.11339358 99.35274118 -30.65600586 99.33618164 C-34.55147954 99.31256681 -38.44626969 99.31562594 -42.34179688 99.32226562 C-44.81250409 99.31668949 -47.28320841 99.30958002 -49.75390625 99.30078125 C-50.9206337 99.30169266 -52.08736115 99.30260406 -53.28944397 99.30354309 C-54.37414474 99.29401108 -55.45884552 99.28447906 -56.57641602 99.2746582 C-57.52952164 99.27005081 -58.48262726 99.26544342 -59.46461487 99.26069641 C-62.09325636 98.99041108 -63.74210793 98.33600123 -66 97 C-57.27440145 96.21489285 -48.63457455 95.83917614 -39.875 95.875 C-38.13416138 95.87790039 -38.13416138 95.87790039 -36.3581543 95.88085938 C-26.54911631 95.92954282 -16.78493653 96.33257437 -7 97 C-7 96.34 -7 95.68 -7 95 C-5.68 95 -4.36 95 -3 95 C-2.690625 94.05125 -2.38125 93.1025 -2.0625 92.125 C-1 89 -1 89 0 87 C0.0932036 84.25370457 0.12577094 81.53296833 0.11352539 78.78662109 C0.11367142 77.9377684 0.11381744 77.08891571 0.1139679 76.21434021 C0.11326966 73.40068023 0.1054814 70.58708596 0.09765625 67.7734375 C0.09579175 65.82573482 0.094368 63.87803168 0.09336853 61.93032837 C0.08954583 56.79779776 0.07971765 51.66529533 0.06866455 46.53277588 C0.05844512 41.29789613 0.05386977 36.06301184 0.04882812 30.828125 C0.03809517 20.55207093 0.0210217 10.27603781 0 0 Z " fill="#017CF2" transform="translate(699,244)"/>
<path d="M0 0 C-1.125 1.5625 -1.125 1.5625 -3 3 C-5.00451121 2.69496569 -7.00448218 2.35919321 -9 2 C-10.68949614 2.60648579 -12.35636866 3.27840576 -14 4 C-16.33333333 4.33333333 -18.66666667 4.66666667 -21 5 C-26.59313578 6.2331323 -31.87571362 7.42281488 -37 10 C-38.90537772 10.58012897 -40.82324953 11.12037488 -42.75 11.625 C-43.73484375 11.88539063 -44.7196875 12.14578125 -45.734375 12.4140625 C-46.85585938 12.70410156 -46.85585938 12.70410156 -48 13 C-48.33 12.34 -48.66 11.68 -49 11 C-26.09611165 2.98626366 -26.09611165 2.98626366 -14.9375 0.4375 C-14.23189941 0.26959961 -13.52629883 0.10169922 -12.79931641 -0.07128906 C-8.15508605 -1.06495921 -4.58546551 -0.900397 0 0 Z " fill="#0B8CED" transform="translate(453,243)"/>
<path d="M0 0 C0.90878906 0.2165625 0.90878906 0.2165625 1.8359375 0.4375 C7.35387949 1.65993638 12.41615028 2.17539554 18.06640625 1.97265625 C20 2 20 2 21 3 C23.28988781 3.15888092 25.58443441 3.25138073 27.87890625 3.31640625 C28.5655687 3.33718735 29.25223114 3.35796844 29.95970154 3.37937927 C32.16052935 3.44494143 34.36147975 3.50379015 36.5625 3.5625 C38.05144514 3.60567892 39.54037773 3.649293 41.02929688 3.69335938 C44.68606553 3.8006293 48.34297318 3.90187772 52 4 C52 4.33 52 4.66 52 5 C46.84457759 5.05009754 41.68930233 5.08604323 36.53369141 5.10986328 C34.78627041 5.11981187 33.03886556 5.13337557 31.29150391 5.15087891 C20.64547151 5.25471284 10.50624168 4.92502301 0 3 C0 2.01 0 1.02 0 0 Z " fill="#099CC4" transform="translate(436,553)"/>
<path d="M0 0 C-5.24927573 2.9162643 -9.77836758 4.54852216 -15.6875 5.56640625 C-18.16943127 5.97515108 -18.16943127 5.97515108 -21.125 7.0625 C-24.75956782 8.24768516 -28.19955851 8.60685088 -32 9 C-32 8.34 -32 7.68 -32 7 C-28.08929937 5.8296082 -24.17496738 4.67237733 -20.25683594 3.52709961 C-18.92504871 3.13582635 -17.59430003 2.74099965 -16.26464844 2.3425293 C-14.35109138 1.76974932 -12.43339132 1.21086848 -10.515625 0.65234375 C-8.78747559 0.14175415 -8.78747559 0.14175415 -7.02441406 -0.37915039 C-4.14486195 -0.97026284 -2.70471811 -1.02442649 0 0 Z " fill="#10A3CE" transform="translate(674,540)"/>
<path d="M0 0 C0.66 0.33 1.32 0.66 2 1 C1.38125 1.226875 0.7625 1.45375 0.125 1.6875 C-2.22658694 2.83502307 -2.22658694 2.83502307 -2.875 5.4375 C-4.44413473 9.01164023 -6.50913273 9.31921205 -10 11 C-13.87237267 14.03121148 -17.43541631 17.36714947 -20.8125 20.9375 C-23 23 -23 23 -26 23 C-17.89741641 14.4967392 -9.38846926 7.05524021 0 0 Z " fill="#0690E8" transform="translate(368,275)"/>
<path d="M0 0 C3.04103372 0.42433029 5.71741589 0.88283098 8.5625 2.0625 C10.98279892 3.16079271 10.98279892 3.16079271 13.6875 3 C14.450625 3 15.21375 3 16 3 C16.66 3.66 17.32 4.32 18 5 C19.92249403 5.7331495 19.92249403 5.7331495 22.1328125 6.2890625 C22.93847656 6.50820313 23.74414062 6.72734375 24.57421875 6.953125 C25.41597656 7.17484375 26.25773437 7.3965625 27.125 7.625 C27.97449219 7.85445312 28.82398438 8.08390625 29.69921875 8.3203125 C31.79793577 8.88625866 33.8981359 9.44587795 36 10 C36 10.66 36 11.32 36 12 C23.52171244 9.42765135 11.86131669 5.63515779 0 1 C0 0.67 0 0.34 0 0 Z " fill="#0EA4C5" transform="translate(392,542)"/>
<path d="M0 0 C4.09507745 6.14261618 5.68426557 12.37580817 7.25390625 19.5234375 C7.50011719 20.34070313 7.74632812 21.15796875 8 22 C8.66 22.33 9.32 22.66 10 23 C9.67 23.99 9.34 24.98 9 26 C5.57438245 22.21433256 4.35252021 17.76075383 2.8125 13 C2.53986328 12.19304687 2.26722656 11.38609375 1.98632812 10.5546875 C0.73413331 6.75102808 0 4.07567997 0 0 Z " fill="#09A1C7" transform="translate(306,444)"/>
<path d="M0 0 C-2.90619085 2.90619085 -6.41877396 3.20698626 -10.3125 4.0625 C-11.07240234 4.23587891 -11.83230469 4.40925781 -12.61523438 4.58789062 C-16.39987395 5.446093 -20.18977226 6.26229124 -24 7 C-24.33 6.34 -24.66 5.68 -25 5 C-21.39963863 3.96540315 -17.79421232 2.9497136 -14.1875 1.9375 C-13.16333984 1.64294922 -12.13917969 1.34839844 -11.08398438 1.04492188 C-10.10107422 0.77099609 -9.11816406 0.49707031 -8.10546875 0.21484375 C-7.19949951 -0.04176025 -6.29353027 -0.29836426 -5.36010742 -0.56274414 C-3 -1 -3 -1 0 0 Z " fill="#0EA2CC" transform="translate(641,549)"/>
<path d="M0 0 C2.04119788 1.61594832 4.04072937 3.2856382 6 5 C6 5.66 6 6.32 6 7 C6.99 7.33 7.98 7.66 9 8 C10.71875 9.7421875 10.71875 9.7421875 12.5 11.875 C14.58578225 14.35415347 16.67301287 16.7439576 19 19 C18.67 19.66 18.34 20.32 18 21 C15.36261584 18.44999095 12.74244184 15.88296212 10.125 13.3125 C9.37863281 12.59126953 8.63226563 11.87003906 7.86328125 11.12695312 C7.14785156 10.42119141 6.43242187 9.71542969 5.6953125 8.98828125 C5.03547363 8.34415283 4.37563477 7.70002441 3.69580078 7.03637695 C1.83383369 4.80046168 0.93605928 2.73953349 0 0 Z " fill="#0AA3C3" transform="translate(332,496)"/>
<path d="M0 0 C-2.37306314 2.37306314 -3.56306505 2.48276573 -6.8125 3.0625 C-8.09060547 3.29646484 -8.09060547 3.29646484 -9.39453125 3.53515625 C-10.68423828 3.76525391 -10.68423828 3.76525391 -12 4 C-13.33611328 4.33837891 -13.33611328 4.33837891 -14.69921875 4.68359375 C-15.83810547 4.84021484 -15.83810547 4.84021484 -17 5 C-17.66 4.34 -18.32 3.68 -19 3 C-16.586238 2.30048937 -14.16989766 1.61516081 -11.75 0.9375 C-11.06808594 0.73833984 -10.38617187 0.53917969 -9.68359375 0.33398438 C-3.41657839 -1.40009269 -3.41657839 -1.40009269 0 0 Z " fill="#14A3D3" transform="translate(693,535)"/>
<path d="M0 0 C-1.55002747 3.88397689 -4.00476621 6.02979619 -7.125 8.75 C-8.49011719 9.94882812 -8.49011719 9.94882812 -9.8828125 11.171875 C-10.58148438 11.77515625 -11.28015625 12.3784375 -12 13 C-12.66 12.67 -13.32 12.34 -14 12 C-12.04761147 9.99387601 -10.08862178 7.99507567 -8.125 6 C-7.29162109 5.14148438 -7.29162109 5.14148438 -6.44140625 4.265625 C-2.2265625 0 -2.2265625 0 0 0 Z " fill="#1296E6" transform="translate(356,286)"/>
<path d="M0 0 C0.66 0.33 1.32 0.66 2 1 C1.34 1.391875 0.68 1.78375 0 2.1875 C-1.68097536 3.20308928 -3.35100678 4.23979671 -4.97265625 5.34765625 C-5.66230469 5.81042969 -6.35195313 6.27320313 -7.0625 6.75 C-7.71347656 7.19859375 -8.36445313 7.6471875 -9.03515625 8.109375 C-11.48234656 9.2186382 -12.49015002 8.74293387 -15 8 C-12.54665445 6.63603538 -10.08808766 5.28365831 -7.625 3.9375 C-6.92632812 3.54755859 -6.22765625 3.15761719 -5.5078125 2.75585938 C-3.70389816 1.77584822 -1.85416518 0.88124929 0 0 Z " fill="#058AEB" transform="translate(400,256)"/>
<path d="M0 0 C0 0.66 0 1.32 0 2 C-1.57701982 2.55978184 -3.16199242 3.09719401 -4.75 3.625 C-5.63171875 3.92664063 -6.5134375 4.22828125 -7.421875 4.5390625 C-10.41017471 5.07333427 -11.49923002 4.62433191 -14 3 C-12.23050388 2.49528803 -10.45934777 1.99639315 -8.6875 1.5 C-7.70136719 1.2215625 -6.71523438 0.943125 -5.69921875 0.65625 C-3 0 -3 0 0 0 Z " fill="#1AAACB" transform="translate(604,558)"/>
</svg>


